<svg xmlns="http://www.w3.org/2000/svg" width="1024" height="1024" viewBox="0 0 1024 1024">
  <!-- Judo Quiz app icon: a judo belt (obi) tied in a knot on a club-blue
       gradient. Full-bleed & opaque (no transparency) as the iOS icon requires. -->
  <defs>
    <linearGradient id="bg" x1="0" y1="0" x2="0" y2="1">
      <stop offset="0" stop-color="#2abffa"/>
      <stop offset="0.55" stop-color="#0d97d9"/>
      <stop offset="1" stop-color="#0070ae"/>
    </linearGradient>
    <radialGradient id="glow" cx="0.5" cy="0.30" r="0.72">
      <stop offset="0" stop-color="#8fe1ff" stop-opacity="0.55"/>
      <stop offset="1" stop-color="#8fe1ff" stop-opacity="0"/>
    </radialGradient>
    <filter id="ds" x="-30%" y="-30%" width="160%" height="160%">
      <feDropShadow dx="0" dy="16" stdDeviation="22" flood-color="#00405f" flood-opacity="0.32"/>
    </filter>
  </defs>

  <rect width="1024" height="1024" fill="url(#bg)"/>
  <rect width="1024" height="1024" fill="url(#glow)"/>

  <g filter="url(#ds)">
    <!-- belt bands entering from the left and right -->
    <rect x="70"  y="470" width="432" height="126" rx="63" fill="#eee5cb"/>
    <rect x="522" y="470" width="432" height="126" rx="63" fill="#eee5cb"/>
    <!-- shading where the bands tuck under the knot -->
    <rect x="402" y="470" width="34" height="126" fill="#d5caa8" opacity="0.55"/>
    <rect x="588" y="470" width="34" height="126" fill="#d5caa8" opacity="0.55"/>

    <!-- the two hanging belt ends -->
    <path d="M450 566 h58 l16 252 -45 36 -45 -36 z" fill="#e7dcbe"/>
    <path d="M516 566 h58 l16 252 -45 36 -45 -36 z" fill="#f1e8cd"/>

    <!-- knot: back block + front band -->
    <rect x="408" y="428" width="208" height="184" rx="42" fill="#f5eed7"/>
    <rect x="384" y="484" width="256" height="120" rx="36" fill="#fbf5e2"/>
    <!-- highlights & crevices for depth -->
    <rect x="384" y="484" width="256" height="18" rx="9" fill="#ffffff" opacity="0.38"/>
    <rect x="384" y="586" width="256" height="18" rx="9" fill="#d5caa8" opacity="0.5"/>
    <rect x="506" y="484" width="12" height="120" fill="#d5caa8" opacity="0.42"/>
  </g>
</svg>
