<svg xmlns="http://www.w3.org/2000/svg" width="1024" height="1024" viewBox="0 0 1024 1024">
  <!-- Android adaptive-icon FOREGROUND: the belt knot only, scaled into the
       inner safe zone on a transparent background. Paired with the solid blue
       @color/ic_launcher_background. -->
  <defs>
    <filter id="ds" x="-40%" y="-40%" width="180%" height="180%">
      <feDropShadow dx="0" dy="10" stdDeviation="14" flood-color="#00405f" flood-opacity="0.28"/>
    </filter>
  </defs>
  <g transform="translate(512 512) scale(0.72) translate(-512 -641)" filter="url(#ds)">
    <rect x="70"  y="470" width="432" height="126" rx="63" fill="#eee5cb"/>
    <rect x="522" y="470" width="432" height="126" rx="63" fill="#eee5cb"/>
    <rect x="402" y="470" width="34" height="126" fill="#d5caa8" opacity="0.55"/>
    <rect x="588" y="470" width="34" height="126" fill="#d5caa8" opacity="0.55"/>
    <path d="M450 566 h58 l16 252 -45 36 -45 -36 z" fill="#e7dcbe"/>
    <path d="M516 566 h58 l16 252 -45 36 -45 -36 z" fill="#f1e8cd"/>
    <rect x="408" y="428" width="208" height="184" rx="42" fill="#f5eed7"/>
    <rect x="384" y="484" width="256" height="120" rx="36" fill="#fbf5e2"/>
    <rect x="384" y="484" width="256" height="18" rx="9" fill="#ffffff" opacity="0.38"/>
    <rect x="384" y="586" width="256" height="18" rx="9" fill="#d5caa8" opacity="0.5"/>
    <rect x="506" y="484" width="12" height="120" fill="#d5caa8" opacity="0.42"/>
  </g>
</svg>
